arm26_states
version=1
nRows=38
nColumns=17
inDegrees=yes

# SIMM Motion File Header:
name arm26_states
datacolumns 17
datarows 38
otherdata 1
range 0.00000000 0.12258338
endheader
time	r_shoulder_elev	r_elbow_flex	r_shoulder_elev_u	r_elbow_flex_u	TRIlong.activation	TRIlong.fiber_length	TRIlat.activation	TRIlat.fiber_length	TRImed.activation	TRImed.fiber_length	BIClong.activation	BIClong.fiber_length	BICshort.activation	BICshort.fiber_length	BRA.activation	BRA.fiber_length
      0.00000000	      0.00000000	      0.00000000	      0.00000000	      0.00000000	      0.00000000	      0.13675721	      0.00000000	      0.07086738	      0.00000000	      0.06588666	      0.00000000	      0.14850826	      0.00000000	      0.14786332	      0.00000000	      0.09345467
      0.00100000	     -0.00027142	      0.00099017	     -0.54334836	      1.98319946	      0.00095852	      0.13675187	      0.00098152	      0.07086348	      0.00098316	      0.06588318	      0.00796789	      0.14848183	      0.00115362	      0.14785725	      0.00108956	      0.09345138
      0.00279978	     -0.00213500	      0.00780925	     -1.52898011	      5.60607514	      0.00245885	      0.13672890	      0.00253311	      0.07084501	      0.00253727	      0.06586647	      0.02088838	      0.14839569	      0.00303449	      0.14783085	      0.00279671	      0.09343996
      0.00508446	     -0.00705791	      0.02593230	     -2.77849471	     10.26469849	      0.00401135	      0.13669674	      0.00416611	      0.07081574	      0.00417281	      0.06584047	      0.03506616	      0.14828750	      0.00511610	      0.14779133	      0.00456629	      0.09342429
      0.00873361	     -0.02077374	      0.07698507	     -4.72530760	     17.70510811	      0.00585735	      0.13665734	      0.00616816	      0.07077750	      0.00617770	      0.06580791	      0.05370701	      0.14813725	      0.00789012	      0.14773208	      0.00667682	      0.09339867
      0.01238276	     -0.04143815	      0.15503896	     -6.58452912	     25.05462496	      0.00713651	      0.13663482	      0.00761986	      0.07075791	      0.00763038	      0.06579334	      0.06872556	      0.14801174	      0.01017212	      0.14767944	      0.00813740	      0.09337104
      0.01646907	     -0.07240736	      0.27398488	     -8.55230177	     33.13221516	      0.00810913	      0.13662646	      0.00879290	      0.07075728	      0.00880243	      0.06579677	      0.08257430	      0.14789363	      0.01232887	      0.14762560	      0.00923846	      0.09333538
      0.02055539	     -0.11117004	      0.42557750	    -10.40003249	     41.03299150	      0.00875408	      0.13663132	      0.00962867	      0.07077477	      0.00963553	      0.06581814	      0.09423864	      0.14779272	      0.01419439	      0.14757431	      0.00994397	      0.09329424
      0.02464171	     -0.15724716	      0.60908713	    -12.13426009	     48.75647576	      0.00918165	      0.13664738	      0.01022564	      0.07081091	      0.01022851	      0.06585760	      0.10438373	      0.14770393	      0.01585941	      0.14752350	      0.01037211	      0.09324616
      0.02874228	     -0.21041160	      0.82467678	    -13.78280584	     56.37820197	      0.00946571	      0.13667433	      0.01066232	      0.07086467	      0.01066018	      0.06591382	      0.11345606	      0.14762310	      0.01739682	      0.14747142	      0.01061448	      0.09319152
      0.03284284	     -0.27017820	      1.07132265	    -15.35637470	     63.90756720	      0.00965354	      0.13671123	      0.01098786	      0.07093410	      0.01097988	      0.06598494	      0.12168383	      0.14754781	      0.01884613	      0.14741707	      0.01073013	      0.09312900
      0.03694341	     -0.33627956	      1.34873882	    -16.87678950	     71.39669996	      0.00977759	      0.13675736	      0.01124705	      0.07101768	      0.01123269	      0.06606966	      0.12924077	      0.14747592	      0.02023219	      0.14735961	      0.01077258	      0.09305996
      0.04104397	     -0.40852524	      1.65681853	    -18.35315225	     78.86147237	      0.00985946	      0.13681229	      0.01147187	      0.07111430	      0.01145076	      0.06616709	      0.13621287	      0.14740599	      0.02157009	      0.14729844	      0.01078118	      0.09298211
      0.04420713	     -0.46835691	      1.91539655	    -19.47505529	     84.63481259	      0.00990297	      0.13686057	      0.01160834	      0.07119761	      0.01158161	      0.06625088	      0.14125938	      0.14735256	      0.02254567	      0.14724849	      0.01077357	      0.09291799
      0.04737029	     -0.53171654	      2.19225803	    -20.58476550	     90.42371158	      0.00993448	      0.13691394	      0.01168317	      0.07128903	      0.01165014	      0.06634261	      0.14599858	      0.14729913	      0.02342406	      0.14719643	      0.01074908	      0.09284856
      0.05197538	     -0.63022389	      2.62820393	    -22.19896865	     98.92894710	      0.00996540	      0.13700082	      0.01172134	      0.07143689	      0.01167835	      0.06649062	      0.15247159	      0.14722049	      0.02458151	      0.14711675	      0.01068747	      0.09273988
      0.05658047	     -0.73618854	      3.10358477	    -23.82322319	    107.54727706	      0.00998462	      0.13709885	      0.01178024	      0.07160080	      0.01172766	      0.06665453	      0.15829570	      0.14714011	      0.02568007	      0.14703109	      0.01062295	      0.09262041
      0.05920022	     -0.79982325	      3.39183012	    -24.75864160	    112.51503659	      0.00999206	      0.13715976	      0.01182553	      0.07170120	      0.01176770	      0.06675492	      0.16138322	      0.14709327	      0.02628838	      0.14697915	      0.01058711	      0.09254927
      0.06181998	     -0.86591668	      3.69314014	    -25.70061803	    117.52177041	      0.00999772	      0.13722441	      0.01187561	      0.07180667	      0.01181283	      0.06686034	      0.16425306	      0.14704541	      0.02686679	      0.14692473	      0.01055246	      0.09247411
      0.06622378	     -0.98262084	      4.22938900	    -27.30639881	    126.04028922	      0.01000431	      0.13734169	      0.01196683	      0.07199578	      0.01189637	      0.06704919	      0.16865938	      0.14696236	      0.02777726	      0.14682751	      0.01049710	      0.09234049
      0.07062758	     -1.10646240	      4.80342603	    -28.94324398	    134.68469893	      0.01000839	      0.13747023	      0.01206185	      0.07220095	      0.01198448	      0.06725448	      0.17255232	      0.14687524	      0.02859903	      0.14672257	      0.01044591	      0.09219814
      0.07426826	     -1.21433835	      5.30692226	    -30.32171727	    141.92233547	      0.01001056	      0.13758527	      0.01214018	      0.07238259	      0.01205772	      0.06743535	      0.17537336	      0.14679965	      0.02920148	      0.14662964	      0.01040733	      0.09207233
      0.07718226	     -1.30432866	      5.72900619	    -31.44562751	    147.78161034	      0.01001174	      0.13768314	      0.01220084	      0.07253629	      0.01211100	      0.06758916	      0.17741643	      0.14673643	      0.02958817	      0.14655109	      0.01038063	      0.09196846
      0.08009626	     -1.39761716	      6.16823483	    -32.58512884	    153.68804664	      0.01001260	      0.13778626	      0.01225594	      0.07269732	      0.01214859	      0.06774992	      0.17924587	      0.14667049	      0.02977852	      0.14646944	      0.01036195	      0.09185946
      0.08343091	     -1.50848038	      6.69208150	    -33.91072544	    160.50736122	      0.01001327	      0.13791080	      0.01231367	      0.07289087	      0.01217672	      0.06794359	      0.18114021	      0.14659133	      0.02981664	      0.14637248	      0.01034996	      0.09173017
      0.08676555	     -1.62379866	      7.23875737	    -35.25661837	    167.37794118	      0.01001371	      0.13804249	      0.01236540	      0.07309470	      0.01219948	      0.06814727	      0.18275865	      0.14650778	      0.02980973	      0.14627062	      0.01034280	      0.09159519
      0.09074463	     -1.76732411	      7.92117190	    -36.88849109	    175.63471326	      0.01001405	      0.13820896	      0.01241964	      0.07335068	      0.01222822	      0.06840382	      0.18430820	      0.14640197	      0.02981979	      0.14614049	      0.01033492	      0.09142743
      0.09472371	     -1.91739113	      8.63653193	    -38.54142218	    183.92682870	      0.01001425	      0.13838609	      0.01246643	      0.07362574	      0.01225663	      0.06867229	      0.18550713	      0.14628881	      0.02984710	      0.14599956	      0.01032773	      0.09125152
      0.09702376	     -2.00714850	      9.06510309	    -39.50777094	    188.73698136	      0.01001432	      0.13849337	      0.01248941	      0.07378558	      0.01227153	      0.06883790	      0.18602768	      0.14621975	      0.02985475	      0.14591288	      0.01032390	      0.09114708
      0.09932380	     -2.09913186	      9.50473376	    -40.47688613	    193.54295335	      0.01001437	      0.13860408	      0.01251008	      0.07395482	      0.01228553	      0.06900543	      0.18645093	      0.14614783	      0.02985728	      0.14582227	      0.01032028	      0.09103969
      0.10255831	     -2.23226477	     10.14166792	    -41.84444970	    200.29213538	      0.01001443	      0.13876564	      0.01253518	      0.07419969	      0.01230320	      0.06925020	      0.18688305	      0.14604150	      0.02985418	      0.14568795	      0.01031555	      0.09088441
      0.10579282	     -2.36982387	     10.80039340	    -43.21203051	    207.01173897	      0.01001446	      0.13893440	      0.01255521	      0.07445640	      0.01231768	      0.06950457	      0.18711293	      0.14592881	      0.02984262	      0.14554522	      0.01031122	      0.09072446
      0.10859124	     -2.49240225	     11.38779575	    -44.39287036	    212.79216328	      0.01001449	      0.13908607	      0.01256946	      0.07468354	      0.01232824	      0.06973300	      0.18718875	      0.14582572	      0.02982610	      0.14541466	      0.01030777	      0.09058210
      0.11138967	     -2.61827421	     11.99130626	    -45.56424405	    218.51895373	      0.01001451	      0.13924292	      0.01258098	      0.07492153	      0.01233687	      0.06996813	      0.18718091	      0.14571707	      0.02980189	      0.14527732	      0.01030456	      0.09043629
      0.11418810	     -2.74740972	     12.61076265	    -46.72556843	    224.18914791	      0.01001454	      0.13940498	      0.01258999	      0.07516333	      0.01234361	      0.07021120	      0.18713734	      0.14560246	      0.02976898	      0.14513296	      0.01030158	      0.09028698
      0.11698653	     -2.87977251	     13.24598166	    -47.86899682	    229.77909772	      0.01001456	      0.13957218	      0.01259712	      0.07541599	      0.01234895	      0.07046070	      0.18706323	      0.14548151	      0.02972792	      0.14498137	      0.01029881	      0.09013432
      0.11978495	     -3.01530889	     13.89672732	    -48.99410887	    235.28698801	      0.01001459	      0.13974447	      0.01260296	      0.07567183	      0.01235335	      0.07071822	      0.18695579	      0.14535388	      0.02967806	      0.14482234	      0.01029625	      0.08997837
      0.12258338	     -3.15395912	     14.56274477	    -50.09235154	    240.68755828	      0.01001462	      0.13992175	      0.01260793	      0.07593913	      0.01235715	      0.07098159	      0.18681392	      0.14521929	      0.02961919	      0.14465566	      0.01029386	      0.08981922
